G04 DipTrace 5.2.0.1*
G04 BottomSilk.gbr*
%MOIN*%
G04 #@! TF.FileFunction,Legend,Bot*
G04 #@! TF.Part,Single*
%ADD10C,0.005*%
%ADD16C,0.012*%
%ADD18C,0.01*%
%ADD24C,0.008*%
%ADD73C,0.00772*%
%ADD74C,0.009264*%
%FSLAX26Y26*%
G04*
G70*
G90*
G75*
G01*
G04 BotSilk*
%LPD*%
X570669Y2806465D2*
D10*
Y2743535D1*
X563220Y2806465D2*
Y2743535D1*
Y2806465D2*
X586780D1*
X563220Y2743535D2*
X586780D1*
X-1163069Y3952489D2*
X-1111927Y3952490D1*
X-1549992Y2924972D2*
D16*
X-1199992Y2925010D1*
X-1550008Y3074972D2*
X-1549992Y2924972D1*
X-1550008Y3074972D2*
X-1200008Y3075010D1*
X-1199992Y2925010D1*
X-574972Y2706258D2*
X-575007Y3056258D1*
X-724972Y2706243D2*
X-574972Y2706258D1*
X-724972Y2706243D2*
X-725007Y3056243D1*
X-575007Y3056258D1*
X-1355010Y3166252D2*
X-1355009Y3246252D1*
X-1405003Y3166253D2*
X-1405002Y3246253D1*
X-1244998Y3166251D2*
X-1244997Y3246251D1*
X-1244998Y3166251D2*
X-1405003Y3166253D1*
X-1244997Y3246251D2*
X-1405002Y3246253D1*
X-1405003Y3206253D2*
X-1435012D1*
X-1214988Y3206251D2*
X-1244997D1*
X-1644587Y4185281D2*
D18*
Y3878205D1*
X-1290244Y3952996D2*
Y3905757D1*
Y4157728D2*
Y4110490D1*
X-1644587Y3878205D2*
X-1613076D1*
X-1502865D2*
X-1396554D1*
X-1644587Y4185281D2*
X-1613076D1*
X-1502865D2*
X-1396554D1*
X-999970Y2724995D2*
X-799970Y2725018D1*
X-999981Y2824985D2*
X-899981Y2824996D1*
X-1000004Y3024995D2*
X-800004Y3025018D1*
X-899970Y2725007D2*
X-899981Y2824996D1*
X-799970Y2725018D2*
X-800004Y3025018D1*
X-999970Y2724995D2*
X-1000004Y3024995D1*
X-900001Y4335003D2*
D24*
Y4355005D1*
X-910001Y4335003D2*
X-900001Y4344992D1*
X-920001Y4335003D2*
X-890001D1*
X-885001Y4330008D2*
X-900001Y4344992D1*
X-925001Y4330008D2*
X-900001Y4355005D1*
X-925001Y4330008D2*
X-875001D1*
X-900001Y4355005D1*
X-925001D2*
X-875001D1*
X-950001Y4225000D2*
D16*
Y4299992D1*
X-850001Y4225000D2*
Y4299992D1*
X-950001Y4375008D2*
Y4450000D1*
X-850001Y4375008D2*
Y4450000D1*
X-950001Y4225000D2*
X-850001D1*
X-950001Y4450000D2*
X-850001D1*
X50005Y2120474D2*
D18*
X57872D1*
X116932Y2119483D2*
X124809D1*
X124808Y2060438D1*
X50005Y2120474D2*
Y2060438D1*
X1131465Y3911780D2*
D10*
Y3888220D1*
X1068535Y3911780D2*
Y3888220D1*
X161781Y3874785D2*
X138222Y3874784D1*
X161778Y3937714D2*
X138219Y3937713D1*
X418536Y3500718D2*
X418534Y3524277D1*
X481466Y3500723D2*
X481464Y3524282D1*
X543536Y3113218D2*
X543534Y3136777D1*
X606466Y3113223D2*
X606464Y3136782D1*
X-118536Y2061781D2*
X-118535Y2038222D1*
X-181465Y2061778D2*
X-181464Y2038219D1*
X586782Y2593536D2*
X563223Y2593534D1*
X586777Y2656466D2*
X563218Y2656464D1*
X-674785Y4336780D2*
Y4313221D1*
X-737714Y4336779D2*
Y4313220D1*
X906465Y3911780D2*
Y3888220D1*
X843535Y3911780D2*
Y3888220D1*
X-581464Y4313220D2*
X-581465Y4336779D1*
X-518535Y4313221D2*
X-518536Y4336780D1*
X600215Y3518030D2*
X600216Y3494471D1*
X537286Y3518028D2*
Y3494469D1*
X-511782Y2312713D2*
X-488223Y2312715D1*
X-511777Y2249784D2*
X-488218Y2249786D1*
X-1206465Y3394470D2*
Y3418029D1*
X-1143535Y3394470D2*
Y3418029D1*
X400215Y2030531D2*
X400216Y2006972D1*
X337286Y2030529D2*
Y2006970D1*
X393536Y3113219D2*
X393535Y3136778D1*
X456465Y3113222D2*
X456464Y3136781D1*
X-1049763Y2310540D2*
D18*
G02X-1049763Y2310540I0J22955D01*
G01*
X-750563Y2380734D2*
X-1096975Y2380736D1*
X-750563Y2380734D2*
X-750565Y2034322D1*
X-1096977Y2034324D1*
X-1096975Y2380736D2*
X-1096977Y2034324D1*
X-1425016Y2824987D2*
G02X-1474995Y2824982I-24990J-13D01*
G01*
X-1350011Y2824995D2*
X-1425016Y2824987D1*
X-1474995Y2824982D2*
X-1550000Y2824974D1*
X-1549958Y2424974D2*
X-1550000Y2824974D1*
X-1349968Y2424995D2*
X-1549958Y2424974D1*
X-1349968Y2424995D2*
X-1350011Y2824995D1*
X723670Y2204650D2*
D74*
X700722Y2144362D1*
X677774Y2204650D1*
X616203Y2190324D2*
X619055Y2196028D1*
X624825Y2201798D1*
X630529Y2204650D1*
X642003D1*
X647773Y2201798D1*
X653477Y2196028D1*
X656395Y2190324D1*
X659247Y2181702D1*
Y2167309D1*
X656395Y2158754D1*
X653477Y2152984D1*
X647773Y2147280D1*
X642003Y2144362D1*
X630529D1*
X624825Y2147280D1*
X619055Y2152984D1*
X616203Y2158754D1*
X554632Y2190324D2*
X557484Y2196028D1*
X563254Y2201798D1*
X568958Y2204650D1*
X580432D1*
X586202Y2201798D1*
X591906Y2196028D1*
X594824Y2190324D1*
X597676Y2181702D1*
Y2167309D1*
X594824Y2158754D1*
X591906Y2152984D1*
X586202Y2147280D1*
X580432Y2144362D1*
X568958D1*
X563254Y2147280D1*
X557484Y2152984D1*
X554632Y2158754D1*
X1072070Y2165324D2*
X1074922Y2171028D1*
X1080692Y2176798D1*
X1086396Y2179650D1*
X1097870D1*
X1103640Y2176798D1*
X1109344Y2171028D1*
X1112262Y2165324D1*
X1115114Y2156702D1*
Y2142309D1*
X1112262Y2133754D1*
X1109344Y2127984D1*
X1103640Y2122280D1*
X1097870Y2119362D1*
X1086396D1*
X1080692Y2122280D1*
X1074922Y2127984D1*
X1072070Y2133754D1*
Y2142309D1*
X1086396D1*
X1013351Y2179650D2*
Y2119362D1*
X1053543Y2179650D1*
Y2119362D1*
X994824Y2179650D2*
Y2119362D1*
X974728D1*
X966106Y2122280D1*
X960336Y2127984D1*
X957484Y2133754D1*
X954632Y2142309D1*
Y2156702D1*
X957484Y2165324D1*
X960336Y2171028D1*
X966106Y2176798D1*
X974728Y2179650D1*
X994824D1*
X-840430Y4027824D2*
X-837578Y4033528D1*
X-831808Y4039298D1*
X-826104Y4042150D1*
X-814630D1*
X-808860Y4039298D1*
X-803156Y4033528D1*
X-800238Y4027824D1*
X-797386Y4019202D1*
Y4004809D1*
X-800238Y3996254D1*
X-803156Y3990484D1*
X-808860Y3984780D1*
X-814630Y3981862D1*
X-826104D1*
X-831808Y3984780D1*
X-837578Y3990484D1*
X-840430Y3996254D1*
Y4004809D1*
X-826104D1*
X-899149Y4042150D2*
Y3981862D1*
X-858957Y4042150D1*
Y3981862D1*
X-917676Y4042150D2*
Y3981862D1*
X-937772D1*
X-946394Y3984780D1*
X-952164Y3990484D1*
X-955016Y3996254D1*
X-957868Y4004809D1*
Y4019202D1*
X-955016Y4027824D1*
X-952164Y4033528D1*
X-946394Y4039298D1*
X-937772Y4042150D1*
X-917676D1*
X621885Y2871718D2*
D73*
X624262Y2876471D1*
X629070Y2881280D1*
X633823Y2883656D1*
X643385D1*
X648193Y2881280D1*
X652947Y2876471D1*
X655378Y2871718D1*
X657755Y2864533D1*
Y2852539D1*
X655378Y2845410D1*
X652947Y2840601D1*
X648193Y2835848D1*
X643385Y2833416D1*
X633823D1*
X629070Y2835848D1*
X624262Y2840601D1*
X621885Y2845410D1*
X606446Y2874039D2*
X601637Y2876471D1*
X594452Y2883601D1*
Y2833416D1*
X549904Y2868516D2*
X545096Y2870947D1*
X537911Y2878077D1*
Y2827893D1*
X473871Y2861386D2*
Y2837454D1*
X471494Y2830324D1*
X466686Y2827893D1*
X459501D1*
X454747Y2830324D1*
X447562Y2837454D1*
Y2861386D2*
Y2827893D1*
X401006Y2878133D2*
X432123D1*
Y2827893D1*
Y2854201D2*
X413000D1*
X-1130969Y4164561D2*
X-1128592Y4169314D1*
X-1123784Y4174122D1*
X-1119031Y4176499D1*
X-1109469D1*
X-1104661Y4174123D1*
X-1099907Y4169315D1*
X-1097475Y4164562D1*
X-1095099Y4157377D1*
X-1095098Y4145383D1*
X-1097475Y4138253D1*
X-1099906Y4133445D1*
X-1104659Y4128691D1*
X-1109468Y4126259D1*
X-1119029D1*
X-1123783Y4128691D1*
X-1128591Y4133444D1*
X-1130968Y4138252D1*
X-1148840Y4164505D2*
Y4166881D1*
X-1151217Y4171690D1*
X-1153593Y4174066D1*
X-1158402Y4176443D1*
X-1167963D1*
X-1172717Y4174066D1*
X-1175093Y4171689D1*
X-1177525Y4166881D1*
Y4162127D1*
X-1175093Y4157319D1*
X-1170339Y4150189D1*
X-1146407Y4126258D1*
X-1179900Y4126257D1*
X-1069683Y3929385D2*
X-1074492Y3931817D1*
X-1081677Y3938946D1*
X-1081676Y3888762D1*
X-1145717Y3922253D2*
X-1145716Y3898321D1*
X-1148093Y3891192D1*
X-1152901Y3888760D1*
X-1160086Y3888759D1*
X-1164839Y3891191D1*
X-1172025Y3898321D1*
Y3922252D2*
X-1172024Y3888759D1*
X-1218582Y3938998D2*
X-1187465Y3938999D1*
X-1187464Y3888759D1*
Y3915067D2*
X-1206588Y3915066D1*
X-1074719Y2624734D2*
X-1072343Y2629488D1*
X-1067535Y2634297D1*
X-1062783Y2636674D1*
X-1053221Y2636676D1*
X-1048412Y2634300D1*
X-1043658Y2629492D1*
X-1041226Y2624739D1*
X-1038848Y2617555D1*
X-1038846Y2605561D1*
X-1041222Y2598431D1*
X-1043653Y2593622D1*
X-1048405Y2588868D1*
X-1053214Y2586436D1*
X-1062775Y2586434D1*
X-1067529Y2588866D1*
X-1072338Y2593618D1*
X-1074715Y2598426D1*
X-1094969Y2636614D2*
X-1121222Y2636610D1*
X-1106904Y2617489D1*
X-1114089Y2617488D1*
X-1118842Y2615111D1*
X-1121218Y2612734D1*
X-1123649Y2605549D1*
X-1123648Y2600795D1*
X-1121215Y2593611D1*
X-1116461Y2588803D1*
X-1109276Y2586427D1*
X-1102091Y2586429D1*
X-1094961Y2588806D1*
X-1092585Y2591238D1*
X-1090154Y2595992D1*
X-1047686Y2569552D2*
X-1040501Y2567176D1*
X-1035691Y2559992D1*
X-1033313Y2548054D1*
X-1033312Y2540869D1*
X-1035686Y2528931D1*
X-1040494Y2521745D1*
X-1047678Y2519367D1*
X-1052432Y2519366D1*
X-1059617Y2521742D1*
X-1064371Y2528926D1*
X-1066805Y2540864D1*
X-1066806Y2548049D1*
X-1064376Y2559988D1*
X-1059624Y2567174D1*
X-1052439Y2569551D1*
X-1047686Y2569552D1*
X-1064376Y2559988D2*
X-1035686Y2528931D1*
X-1084618Y2524170D2*
X-1082241Y2521739D1*
X-1084618Y2519362D1*
X-1087050Y2521738D1*
X-1084618Y2524170D1*
X-1102495Y2559982D2*
X-1107304Y2562413D1*
X-1114490Y2569542D1*
X-1114482Y2519357D1*
X-1178527Y2552841D2*
X-1178524Y2528909D1*
X-1180899Y2521779D1*
X-1185707Y2519346D1*
X-1192892Y2519345D1*
X-1197646Y2521777D1*
X-1204832Y2528905D1*
X-1204836Y2552837D2*
X-1204831Y2519344D1*
X-1251394Y2569577D2*
X-1220277Y2569581D1*
X-1220270Y2519341D1*
X-1220274Y2545650D2*
X-1239397Y2545647D1*
X-1489755Y3139843D2*
X-1487379Y3144597D1*
X-1482571Y3149406D1*
X-1477818Y3151783D1*
X-1468256Y3151784D1*
X-1463447Y3149408D1*
X-1458694Y3144600D1*
X-1456261Y3139847D1*
X-1453884Y3132662D1*
X-1453883Y3120669D1*
X-1456259Y3113539D1*
X-1458690Y3108730D1*
X-1463443Y3103976D1*
X-1468251Y3101544D1*
X-1477812Y3101543D1*
X-1482566Y3103974D1*
X-1487375Y3108727D1*
X-1489752Y3113535D1*
X-1529122Y3101537D2*
X-1529127Y3151722D1*
X-1505192Y3118287D1*
X-1541062Y3118283D1*
X-1222717Y2907956D2*
X-1215532Y2905580D1*
X-1210723Y2898395D1*
X-1208345Y2886458D1*
X-1208344Y2879272D1*
X-1210720Y2867334D1*
X-1215527Y2860148D1*
X-1222712Y2857771D1*
X-1227465D1*
X-1234650Y2860146D1*
X-1239404Y2867331D1*
X-1241838Y2879269D1*
Y2886454D1*
X-1239408Y2898392D1*
X-1234655Y2905578D1*
X-1227471Y2907955D1*
X-1222717Y2907956D1*
X-1239408Y2898392D2*
X-1210720Y2867334D1*
X-1259652Y2862576D2*
X-1257275Y2860144D1*
X-1259651Y2857767D1*
X-1262083Y2860143D1*
X-1259652Y2862576D1*
X-1277527Y2898388D2*
X-1282335Y2900820D1*
X-1289521Y2907949D1*
X-1289516Y2857764D1*
X-1353559Y2891250D2*
X-1353557Y2867319D1*
X-1355933Y2860189D1*
X-1360741Y2857756D1*
X-1367926Y2857755D1*
X-1372679Y2860187D1*
X-1379865Y2867316D1*
X-1379868Y2891248D2*
X-1379864Y2857754D1*
X-1426426Y2907989D2*
X-1395309Y2907993D1*
X-1395303Y2857753D1*
X-1395306Y2884061D2*
X-1414430Y2884059D1*
X-623304Y3117549D2*
X-620928Y3122302D1*
X-616120Y3127111D1*
X-611367Y3129488D1*
X-601805Y3129489D1*
X-596996Y3127113D1*
X-592243Y3122305D1*
X-589810Y3117552D1*
X-587433Y3110367D1*
X-587432Y3098374D1*
X-589808Y3091244D1*
X-592239Y3086435D1*
X-596992Y3081681D1*
X-601800Y3079249D1*
X-611362Y3079248D1*
X-616115Y3081680D1*
X-620924Y3086432D1*
X-623301Y3091240D1*
X-667429Y3129427D2*
X-643553Y3129430D1*
X-641174Y3107930D1*
X-643551Y3110306D1*
X-650736Y3112737D1*
X-657866D1*
X-665051Y3110304D1*
X-669859Y3105550D1*
X-672234Y3098365D1*
Y3093612D1*
X-669857Y3086427D1*
X-665048Y3081619D1*
X-657862Y3079243D1*
X-650733Y3079244D1*
X-643548Y3081621D1*
X-641171Y3084054D1*
X-638740Y3088807D1*
X-498628Y2679437D2*
X-491443Y2677061D1*
X-486633Y2669876D1*
X-484256Y2657938D1*
X-484255Y2650753D1*
X-486630Y2638815D1*
X-491438Y2631629D1*
X-498623Y2629252D1*
X-503376Y2629251D1*
X-510561Y2631627D1*
X-515315Y2638812D1*
X-517748Y2650750D1*
X-517749Y2657935D1*
X-515318Y2669873D1*
X-510566Y2677059D1*
X-503381Y2679436D1*
X-498628Y2679437D1*
X-515318Y2669873D2*
X-486630Y2638815D1*
X-535562Y2634056D2*
X-533186Y2631625D1*
X-535562Y2629248D1*
X-537994Y2631624D1*
X-535562Y2634056D1*
X-553437Y2669869D2*
X-558246Y2672301D1*
X-565432Y2679430D1*
X-565427Y2629245D1*
X-629470Y2662732D2*
X-629468Y2638800D1*
X-631844Y2631670D1*
X-636652Y2629238D1*
X-643837Y2629237D1*
X-648590Y2631668D1*
X-655776Y2638797D1*
X-655778Y2662729D2*
X-655775Y2629236D1*
X-702336Y2679471D2*
X-671219Y2679474D1*
X-671214Y2629234D1*
X-671217Y2655542D2*
X-690340Y2655541D1*
X-1346369Y3325725D2*
X-1346370Y3275485D1*
X-1363116D1*
X-1370301Y3277917D1*
X-1375110Y3282670D1*
X-1377486Y3287478D1*
X-1379863Y3294608D1*
Y3306602D1*
X-1377486Y3313787D1*
X-1375109Y3318540D1*
X-1370301Y3323348D1*
X-1363116Y3325725D1*
X-1346369D1*
X-1395302Y3316108D2*
X-1400110Y3318540D1*
X-1407295Y3325670D1*
X-1407296Y3275485D1*
X-1094389Y3139674D2*
X-1099197Y3142106D1*
X-1106382Y3149236D1*
Y3099051D1*
X-1155315Y3149292D2*
Y3099052D1*
X-1121821Y3149291D1*
X-1121822Y3099051D1*
X-1201871Y3132546D2*
X-1199439Y3125360D1*
X-1194686Y3120552D1*
X-1187501Y3118175D1*
X-1185124D1*
X-1177939Y3120552D1*
X-1173186Y3125360D1*
X-1170754Y3132545D1*
Y3134922D1*
X-1173186Y3142107D1*
X-1177939Y3146860D1*
X-1185124Y3149237D1*
X-1187501D1*
X-1194686Y3146860D1*
X-1199439Y3142107D1*
X-1201871Y3132546D1*
Y3120552D1*
X-1199439Y3108614D1*
X-1194686Y3101429D1*
X-1187501Y3099052D1*
X-1182748D1*
X-1175563Y3101429D1*
X-1173186Y3106237D1*
X-1217310Y3139675D2*
X-1222118Y3142107D1*
X-1229303Y3149237D1*
X-1229304Y3099052D1*
X-1268675Y3099053D2*
X-1268674Y3149238D1*
X-1244743Y3115799D1*
X-1280613Y3115800D1*
X-1301433Y3792367D2*
Y3754121D1*
X-1299057Y3746936D1*
X-1296625Y3744559D1*
X-1291872Y3742127D1*
X-1287063D1*
X-1282310Y3744559D1*
X-1279933Y3746936D1*
X-1277502Y3754121D1*
Y3758874D1*
X-1316872Y3782751D2*
X-1321681Y3785182D1*
X-1328866Y3792312D1*
Y3742127D1*
X-1063770Y4336314D2*
Y4300444D1*
X-1066147Y4293259D1*
X-1070955Y4288506D1*
X-1078140Y4286074D1*
X-1082893D1*
X-1090078Y4288506D1*
X-1094887Y4293259D1*
X-1097263Y4300444D1*
Y4336314D1*
X-1146196Y4329129D2*
X-1141443Y4333938D1*
X-1134258Y4336314D1*
X-1124696D1*
X-1117511Y4333938D1*
X-1112703Y4329129D1*
Y4324376D1*
X-1115135Y4319568D1*
X-1117511Y4317191D1*
X-1122264Y4314814D1*
X-1136634Y4310006D1*
X-1141443Y4307629D1*
X-1143819Y4305198D1*
X-1146196Y4300444D1*
Y4293259D1*
X-1141443Y4288506D1*
X-1134258Y4286074D1*
X-1124696D1*
X-1117511Y4288506D1*
X-1112703Y4293259D1*
X-1161635Y4336314D2*
Y4286074D1*
X-1183190D1*
X-1190375Y4288506D1*
X-1192752Y4290883D1*
X-1195129Y4295636D1*
Y4302821D1*
X-1192752Y4307629D1*
X-1190375Y4310006D1*
X-1183190Y4312383D1*
X-1190375Y4314814D1*
X-1192752Y4317191D1*
X-1195129Y4321944D1*
Y4326753D1*
X-1192752Y4331506D1*
X-1190375Y4333938D1*
X-1183190Y4336314D1*
X-1161635D1*
Y4312383D2*
X-1183190D1*
X-1210568Y4277784D2*
X-1255999D1*
X-1309685Y4286074D2*
Y4336314D1*
X-1290562Y4286074D1*
X-1271439Y4336314D1*
Y4286074D1*
X-1325124Y4336314D2*
Y4286074D1*
X-1374057Y4336314D2*
Y4286074D1*
X-1340564Y4336314D1*
Y4286074D1*
X-1389496Y4336314D2*
Y4286074D1*
X-1404936Y4277784D2*
X-1450367D1*
X-1501676Y4324376D2*
X-1499300Y4329129D1*
X-1494491Y4333938D1*
X-1489738Y4336314D1*
X-1480176D1*
X-1475368Y4333938D1*
X-1470615Y4329129D1*
X-1468183Y4324376D1*
X-1465806Y4317191D1*
Y4305198D1*
X-1468183Y4298068D1*
X-1470615Y4293259D1*
X-1475368Y4288506D1*
X-1480176Y4286074D1*
X-1489738D1*
X-1494491Y4288506D1*
X-1499300Y4293259D1*
X-1501676Y4298068D1*
X-1531486Y4336314D2*
X-1526677Y4333938D1*
X-1521924Y4329129D1*
X-1519492Y4324376D1*
X-1517116Y4317191D1*
Y4305198D1*
X-1519492Y4298068D1*
X-1521924Y4293259D1*
X-1526677Y4288506D1*
X-1531486Y4286074D1*
X-1541047D1*
X-1545800Y4288506D1*
X-1550609Y4293259D1*
X-1552985Y4298068D1*
X-1555362Y4305198D1*
Y4317191D1*
X-1552985Y4324376D1*
X-1550609Y4329129D1*
X-1545800Y4333938D1*
X-1541047Y4336314D1*
X-1531486D1*
X-1604295D2*
Y4286074D1*
X-1570801Y4336314D1*
Y4286074D1*
X-1653227Y4336314D2*
Y4286074D1*
X-1619734Y4336314D1*
Y4286074D1*
X-903459Y2703130D2*
X-903455Y2664883D1*
X-901078Y2657698D1*
X-898646Y2655322D1*
X-893892Y2652891D1*
X-889084D1*
X-884331Y2655323D1*
X-881955Y2657700D1*
X-879524Y2664886D1*
Y2669639D1*
X-921329Y2691134D2*
X-921330Y2693511D1*
X-923707Y2698319D1*
X-926083Y2700695D1*
X-930892Y2703071D1*
X-940454Y2703070D1*
X-945207Y2700693D1*
X-947583Y2698316D1*
X-950014Y2693507D1*
Y2688754D1*
X-947581Y2683946D1*
X-942828Y2676817D1*
X-918893Y2652888D1*
X-952386Y2652884D1*
X-792879Y3052918D2*
X-773706Y3103160D1*
X-754577Y3052922D1*
X-761764Y3069668D2*
X-785696Y3069665D1*
X-808324Y3103156D2*
X-827441Y3052914D1*
X-846570Y3103152D1*
X-862007Y3079218D2*
X-883507Y3079216D1*
X-890692Y3081647D1*
X-893124Y3084023D1*
X-895501Y3088776D1*
X-895502Y3093585D1*
X-893126Y3098338D1*
X-890694Y3100770D1*
X-883509Y3103147D1*
X-862009Y3103150D1*
X-862004Y3052910D1*
X-878753Y3079216D2*
X-895497Y3052906D1*
X-910942Y3103144D2*
X-910936Y3052904D1*
X-959874Y3095954D2*
X-955121Y3100763D1*
X-947936Y3103140D1*
X-938375Y3103141D1*
X-931189Y3100766D1*
X-926380Y3095958D1*
Y3091205D1*
X-928811Y3086396D1*
X-931188Y3084019D1*
X-935941Y3081642D1*
X-950310Y3076832D1*
X-955118Y3074455D1*
X-957495Y3072023D1*
X-959871Y3067269D1*
X-959870Y3060084D1*
X-955116Y3055331D1*
X-947931Y3052900D1*
X-938369Y3052901D1*
X-931184Y3055334D1*
X-926376Y3060088D1*
X-975311Y3076829D2*
X-996866Y3076827D1*
X-1003996Y3079202D1*
X-1006428Y3081634D1*
X-1008805Y3086387D1*
X-1008806Y3093572D1*
X-1006430Y3098325D1*
X-1003998Y3100758D1*
X-996869Y3103135D1*
X-975314Y3103137D1*
X-975308Y3052897D1*
X-1052931Y3095944D2*
X-1050554Y3100697D1*
X-1043370Y3103074D1*
X-1038617Y3103075D1*
X-1031431Y3100699D1*
X-1026622Y3093515D1*
X-1024244Y3081577D1*
X-1024243Y3069639D1*
X-1026618Y3060077D1*
X-1031426Y3055268D1*
X-1038611Y3052890D1*
X-1040988D1*
X-1048118Y3055266D1*
X-1052927Y3060074D1*
X-1055304Y3067258D1*
Y3069635D1*
X-1052928Y3076820D1*
X-1048120Y3081574D1*
X-1040991Y3083951D1*
X-1038614Y3083952D1*
X-1031429Y3081576D1*
X-1026620Y3076823D1*
X-1024243Y3069639D1*
X-804924Y4508072D2*
X-826479D1*
X-833609Y4510449D1*
X-836041Y4512881D1*
X-838418Y4517634D1*
Y4524819D1*
X-836041Y4529572D1*
X-833609Y4532004D1*
X-826479Y4534381D1*
X-804924D1*
Y4484141D1*
X-865795Y4517634D2*
X-861042Y4515257D1*
X-856233Y4510449D1*
X-853857Y4503264D1*
Y4498511D1*
X-856233Y4491326D1*
X-861042Y4486572D1*
X-865795Y4484141D1*
X-872980D1*
X-877789Y4486572D1*
X-882542Y4491326D1*
X-884974Y4498511D1*
Y4503264D1*
X-882542Y4510449D1*
X-877789Y4515257D1*
X-872980Y4517634D1*
X-865795D1*
X-900413D2*
X-909974Y4484141D1*
X-919536Y4517634D1*
X-929098Y4484141D1*
X-938659Y4517634D1*
X-954099Y4503264D2*
X-982783D1*
Y4508072D1*
X-980407Y4512881D1*
X-978030Y4515257D1*
X-973222Y4517634D1*
X-966037D1*
X-961284Y4515257D1*
X-956475Y4510449D1*
X-954099Y4503264D1*
Y4498511D1*
X-956475Y4491326D1*
X-961284Y4486572D1*
X-966037Y4484141D1*
X-973222D1*
X-978030Y4486572D1*
X-982783Y4491326D1*
X-998223Y4517634D2*
Y4484141D1*
Y4503264D2*
X-1000655Y4510449D1*
X-1005408Y4515257D1*
X-1010216Y4517634D1*
X-1017401D1*
X89477Y2216089D2*
X94230Y2213768D1*
X99038Y2208959D1*
X101415Y2204151D1*
X103847Y2196966D1*
Y2185028D1*
X101415Y2177843D1*
X99038Y2173089D1*
X94230Y2168281D1*
X89477Y2165904D1*
X79915Y2165905D1*
X75107Y2168281D1*
X70353Y2173090D1*
X67977Y2177843D1*
X65545Y2185028D1*
Y2196966D1*
X67977Y2204151D1*
X70354Y2208960D1*
X75107Y2213768D1*
X79915Y2216089D1*
X89477D1*
X82292Y2175466D2*
X67977Y2161096D1*
X50106Y2206472D2*
X45297Y2208904D1*
X38112Y2216034D1*
Y2165849D1*
X233909Y1939936D2*
Y1990176D1*
X253032Y1939936D1*
X272156Y1990176D1*
Y1939936D1*
X180223Y1939937D2*
X180224Y1990177D1*
X199347Y1939937D1*
X218470Y1990177D1*
Y1939937D1*
X131291Y1982992D2*
X136044Y1987800D1*
X143229Y1990177D1*
X152791D1*
X159976Y1987800D1*
X164784Y1982992D1*
Y1978239D1*
X162352Y1973430D1*
X159976Y1971054D1*
X155223Y1968677D1*
X140853Y1963869D1*
X136044Y1961492D1*
X133667Y1959060D1*
X131291Y1954307D1*
Y1947122D1*
X136044Y1942369D1*
X143229Y1939937D1*
X152791D1*
X159976Y1942369D1*
X164784Y1947122D1*
X99105Y1990177D2*
Y1939937D1*
X115852Y1990177D2*
X82358D1*
X62111Y1990122D2*
X35858D1*
X50172Y1970999D1*
X42987D1*
X38234Y1968622D1*
X35858Y1966246D1*
X33426Y1959061D1*
Y1954307D1*
X35858Y1947122D1*
X40611Y1942314D1*
X47796Y1939937D1*
X54981D1*
X62111Y1942314D1*
X64487Y1944746D1*
X66919Y1949499D1*
X-13130Y1973431D2*
X-10698Y1966246D1*
X-5945Y1961437D1*
X1240Y1959061D1*
X3616D1*
X10801Y1961437D1*
X15555Y1966246D1*
X17987Y1973431D1*
Y1975807D1*
X15555Y1982992D1*
X10802Y1987746D1*
X3617Y1990122D1*
X1240D1*
X-5945Y1987746D1*
X-10698Y1982993D1*
X-13130Y1973431D1*
Y1961437D1*
X-10698Y1949499D1*
X-5945Y1942314D1*
X1240Y1939938D1*
X5993D1*
X13178Y1942314D1*
X15555Y1947123D1*
X-42939Y1990122D2*
X-35754Y1987746D1*
X-30946Y1980561D1*
X-28569Y1968623D1*
Y1961438D1*
X-30946Y1949499D1*
X-35755Y1942314D1*
X-42940Y1939938D1*
X-47693D1*
X-54878Y1942314D1*
X-59631Y1949499D1*
X-62063Y1961438D1*
Y1968623D1*
X-59631Y1980561D1*
X-54878Y1987746D1*
X-47693Y1990122D1*
X-42939D1*
X-59631Y1980561D2*
X-30946Y1949499D1*
X-101434Y1939938D2*
Y1990123D1*
X-77502Y1956685D1*
X-113372D1*
X1130463Y4047950D2*
X1108963D1*
X1101778Y4050382D1*
X1099346Y4052759D1*
X1096970Y4057512D1*
Y4062320D1*
X1099346Y4067073D1*
X1101778Y4069505D1*
X1108963Y4071882D1*
X1130463D1*
Y4021642D1*
X1113716Y4047950D2*
X1096970Y4021642D1*
X1081530Y4062265D2*
X1076722Y4064697D1*
X1069537Y4071827D1*
Y4021642D1*
X1154929Y3786810D2*
X1150121Y3789241D1*
X1142936Y3796371D1*
Y3746186D1*
X1113127Y3796371D2*
X1120312Y3793995D1*
X1125120Y3786810D1*
X1127497Y3774871D1*
Y3767686D1*
X1125120Y3755748D1*
X1120312Y3748563D1*
X1113127Y3746186D1*
X1108373D1*
X1101188Y3748563D1*
X1096435Y3755748D1*
X1094003Y3767686D1*
Y3774871D1*
X1096435Y3786810D1*
X1101188Y3793995D1*
X1108373Y3796371D1*
X1113127D1*
X1096435Y3786810D2*
X1125120Y3755748D1*
X1078564Y3796426D2*
Y3746186D1*
X1045071Y3796426D2*
X1078564Y3762933D1*
X1066626Y3774927D2*
X1045071Y3746186D1*
X254169Y3985451D2*
X232669Y3985450D1*
X225484Y3987881D1*
X223052Y3990258D1*
X220675Y3995011D1*
Y3999819D1*
X223051Y4004573D1*
X225483Y4007005D1*
X232668Y4009382D1*
X254168Y4009383D1*
X254170Y3959143D1*
X237422Y3985450D2*
X220677Y3959141D1*
X202804Y3997387D2*
Y3999763D1*
X200427Y4004572D1*
X198050Y4006948D1*
X193242Y4009325D1*
X183680Y4009324D1*
X178927Y4006947D1*
X176550Y4004571D1*
X174119Y3999762D1*
Y3995009D1*
X176551Y3990201D1*
X181305Y3983071D1*
X205237Y3959140D1*
X171744Y3959139D1*
X261182Y3837994D2*
X256373Y3840425D1*
X249188Y3847555D1*
X249190Y3797370D1*
X219378Y3847553D2*
X226564Y3845177D1*
X231372Y3837992D1*
X233749Y3826054D1*
X233750Y3818869D1*
X231374Y3806931D1*
X226566Y3799746D1*
X219381Y3797369D1*
X214627Y3797368D1*
X207442Y3799745D1*
X202689Y3806930D1*
X200256Y3818868D1*
Y3826053D1*
X202687Y3837991D1*
X207440Y3845176D1*
X214625Y3847553D1*
X219378D1*
X202687Y3837991D2*
X231374Y3806931D1*
X184816Y3847607D2*
X184818Y3797367D1*
X151323Y3847606D2*
X184817Y3814114D1*
X172879Y3826107D2*
X151325Y3797366D1*
X485697Y3642164D2*
X464197Y3642163D1*
X457012Y3644594D1*
X454580Y3646970D1*
X452203Y3651723D1*
X452202Y3656532D1*
X454578Y3661285D1*
X457010Y3663717D1*
X464195Y3666094D1*
X485695Y3666096D1*
X485699Y3615856D1*
X468950Y3642163D2*
X452206Y3615853D1*
X431954Y3666036D2*
X405701Y3666034D1*
X420017Y3646912D1*
X412832Y3646911D1*
X408079Y3644534D1*
X405703Y3642158D1*
X403271Y3634972D1*
X403272Y3630219D1*
X405704Y3623034D1*
X410458Y3618226D1*
X417643Y3615850D1*
X424828Y3615851D1*
X431958Y3618228D1*
X434334Y3620660D1*
X436766Y3625414D1*
X504928Y3399308D2*
X500120Y3401739D1*
X492934Y3408868D1*
X492938Y3358684D1*
X463125Y3408866D2*
X470310Y3406490D1*
X475119Y3399305D1*
X477497Y3387367D1*
Y3380182D1*
X475122Y3368244D1*
X470314Y3361058D1*
X463129Y3358681D1*
X458376D1*
X451191Y3361057D1*
X446437Y3368241D1*
X444004Y3380179D1*
X444003Y3387364D1*
X446434Y3399303D1*
X451187Y3406488D1*
X458372Y3408865D1*
X463125Y3408866D1*
X446434Y3399303D2*
X475122Y3368244D1*
X428562Y3408918D2*
X428567Y3358678D1*
X395069Y3408915D2*
X428565Y3375425D1*
X416626Y3387417D2*
X395073Y3358675D1*
X617398Y3260916D2*
X595898Y3260914D1*
X588713Y3263345D1*
X586280Y3265722D1*
X583904Y3270474D1*
X583903Y3275283D1*
X586279Y3280036D1*
X588711Y3282468D1*
X595896Y3284846D1*
X617396Y3284847D1*
X617400Y3234607D1*
X600651Y3260914D2*
X583907Y3234605D1*
X544536Y3234601D2*
X544531Y3284786D1*
X568466Y3251350D1*
X532596Y3251347D1*
X636167Y3011808D2*
X631359Y3014240D1*
X624173Y3021369D1*
X624177Y2971184D1*
X594364Y3021366D2*
X601549Y3018990D1*
X606358Y3011806D1*
X608736Y2999868D1*
Y2992683D1*
X606361Y2980744D1*
X601553Y2973559D1*
X594368Y2971182D1*
X589615Y2971181D1*
X582429Y2973557D1*
X577676Y2980742D1*
X575243Y2992680D1*
X575242Y2999865D1*
X577673Y3011803D1*
X582426Y3018989D1*
X589610Y3021366D1*
X594364D1*
X577673Y3011803D2*
X606361Y2980744D1*
X559801Y3021419D2*
X559805Y2971179D1*
X526308Y3021416D2*
X559804Y2987925D1*
X547865Y2999918D2*
X526312Y2971176D1*
X-43428Y2179660D2*
X-64928Y2179659D1*
X-72113Y2182090D1*
X-74545Y2184467D1*
X-76922Y2189220D1*
Y2194028D1*
X-74546Y2198782D1*
X-72114Y2201214D1*
X-64929Y2203591D1*
X-43429Y2203592D1*
X-43426Y2153352D1*
X-60174Y2179659D2*
X-76919Y2153350D1*
X-121047Y2203532D2*
X-97170Y2203533D1*
X-94792Y2182034D1*
X-97169Y2184410D1*
X-104354Y2186841D1*
X-111484D1*
X-118669Y2184409D1*
X-123477Y2179655D1*
X-125853Y2172470D1*
Y2167717D1*
X-123476Y2160532D1*
X-118667Y2155724D1*
X-111482Y2153348D1*
X-104352D1*
X-97167Y2155725D1*
X-94791Y2158157D1*
X-92359Y2162911D1*
X-157580Y2193976D2*
X-162388Y2196407D1*
X-169574Y2203537D1*
X-169571Y2153352D1*
X-199383Y2203535D2*
X-192198Y2201159D1*
X-187389Y2193974D1*
X-185012Y2182036D1*
X-185011Y2174851D1*
X-187387Y2162912D1*
X-192195Y2155727D1*
X-199380Y2153350D1*
X-204133D1*
X-211318Y2155726D1*
X-216072Y2162911D1*
X-218505Y2174849D1*
Y2182034D1*
X-216074Y2193972D1*
X-211321Y2201157D1*
X-204136Y2203535D1*
X-199383D1*
X-216074Y2193972D2*
X-187387Y2162912D1*
X-233946Y2203588D2*
X-233942Y2153348D1*
X-267439Y2203586D2*
X-233943Y2170095D1*
X-245882Y2182087D2*
X-267436Y2153346D1*
X664537Y2548668D2*
X643037Y2548666D1*
X635851Y2551097D1*
X633419Y2553474D1*
X631042Y2558227D1*
Y2563035D1*
X633418Y2567789D1*
X635850Y2570221D1*
X643035Y2572598D1*
X664534Y2572600D1*
X664539Y2522360D1*
X647790Y2548667D2*
X631046Y2522357D1*
X586918Y2565408D2*
X589294Y2570161D1*
X596479Y2572538D1*
X601232Y2572539D1*
X608417Y2570163D1*
X613226Y2562978D1*
X615604Y2551040D1*
X615605Y2539102D1*
X613229Y2529540D1*
X608421Y2524731D1*
X601236Y2522354D1*
X598860D1*
X591730Y2524730D1*
X586921Y2529538D1*
X584544Y2536723D1*
X584543Y2539099D1*
X586919Y2546285D1*
X591727Y2551038D1*
X598857Y2553415D1*
X601233Y2553416D1*
X608419Y2551040D1*
X613228Y2546287D1*
X615605Y2539102D1*
X554920Y2562984D2*
X550112Y2565415D1*
X542926Y2572544D1*
X542930Y2522360D1*
X513117Y2572542D2*
X520302Y2570166D1*
X525111Y2562981D1*
X527489Y2551043D1*
Y2543858D1*
X525114Y2531920D1*
X520306Y2524734D1*
X513121Y2522357D1*
X508368Y2522356D1*
X501183Y2524732D1*
X496429Y2531917D1*
X493996Y2543855D1*
X493995Y2551040D1*
X496426Y2562979D1*
X501179Y2570164D1*
X508364Y2572541D1*
X513117Y2572542D1*
X496426Y2562979D2*
X525114Y2531920D1*
X478554Y2572594D2*
X478559Y2522354D1*
X445061Y2572591D2*
X478557Y2539101D1*
X466618Y2551093D2*
X445065Y2522351D1*
X-665039Y4460906D2*
X-686539D1*
X-693724Y4463338D1*
X-696156Y4465714D1*
X-698533Y4470467D1*
Y4475276D1*
X-696156Y4480029D1*
X-693725Y4482461D1*
X-686540Y4484838D1*
X-665040D1*
X-665039Y4434598D1*
X-681786Y4460906D2*
X-698532Y4434597D1*
X-723533D2*
X-747466Y4484781D1*
X-713972Y4484782D1*
X-637601Y4193062D2*
X-642409Y4195493D1*
X-649594Y4202623D1*
X-649593Y4152438D1*
X-679404Y4202622D2*
X-672219Y4200246D1*
X-667410Y4193061D1*
X-665033Y4181123D1*
Y4173938D1*
X-667409Y4162000D1*
X-672218Y4154814D1*
X-679403Y4152438D1*
X-684156D1*
X-691341Y4154814D1*
X-696094Y4161999D1*
X-698526Y4173937D1*
X-698527Y4181122D1*
X-696095Y4193060D1*
X-691342Y4200246D1*
X-684157Y4202622D1*
X-679404D1*
X-696095Y4193060D2*
X-667409Y4162000D1*
X-713966Y4202677D2*
X-713965Y4152437D1*
X-747460Y4202676D2*
X-713965Y4169184D1*
X-725904Y4181177D2*
X-747458Y4152436D1*
X906574Y4035906D2*
X885074D1*
X877889Y4038337D1*
X875457Y4040714D1*
X873080Y4045467D1*
Y4050276D1*
X875457Y4055029D1*
X877889Y4057461D1*
X885074Y4059837D1*
X906574D1*
Y4009597D1*
X889827Y4035906D2*
X873080Y4009597D1*
X845703Y4059782D2*
X852833Y4057405D1*
X855265Y4052652D1*
Y4047844D1*
X852833Y4043091D1*
X848080Y4040659D1*
X838518Y4038282D1*
X831333Y4035906D1*
X826580Y4031097D1*
X824203Y4026344D1*
Y4019159D1*
X826580Y4014406D1*
X828956Y4011974D1*
X836141Y4009597D1*
X845703D1*
X852833Y4011974D1*
X855265Y4014406D1*
X857641Y4019159D1*
Y4026344D1*
X855265Y4031097D1*
X850456Y4035906D1*
X843326Y4038282D1*
X833765Y4040659D1*
X828956Y4043091D1*
X826580Y4047844D1*
Y4052652D1*
X828956Y4057405D1*
X836141Y4059782D1*
X845703D1*
X929929Y3786810D2*
X925121Y3789241D1*
X917936Y3796371D1*
Y3746186D1*
X888127Y3796371D2*
X895312Y3793995D1*
X900120Y3786810D1*
X902497Y3774871D1*
Y3767686D1*
X900120Y3755748D1*
X895312Y3748563D1*
X888127Y3746186D1*
X883373D1*
X876188Y3748563D1*
X871435Y3755748D1*
X869003Y3767686D1*
Y3774871D1*
X871435Y3786810D1*
X876188Y3793995D1*
X883373Y3796371D1*
X888127D1*
X871435Y3786810D2*
X900120Y3755748D1*
X839194Y3796371D2*
X846379Y3793995D1*
X851187Y3786810D1*
X853564Y3774871D1*
Y3767686D1*
X851187Y3755748D1*
X846379Y3748563D1*
X839194Y3746186D1*
X834441D1*
X827256Y3748563D1*
X822503Y3755748D1*
X820071Y3767686D1*
Y3774871D1*
X822503Y3786810D1*
X827256Y3793995D1*
X834441Y3796371D1*
X839194D1*
X822503Y3786810D2*
X851187Y3755748D1*
X-509975Y4460907D2*
X-531475Y4460906D1*
X-538660Y4463338D1*
X-541092Y4465714D1*
X-543468Y4470467D1*
X-543469Y4475276D1*
X-541092Y4480029D1*
X-538660Y4482461D1*
X-531475Y4484838D1*
X-509976D1*
X-509974Y4434598D1*
X-526722Y4460906D2*
X-543468Y4434597D1*
X-590024Y4468090D2*
X-587592Y4460905D1*
X-582839Y4456096D1*
X-575654Y4453720D1*
X-573277D1*
X-566092Y4456097D1*
X-561339Y4460905D1*
X-558908Y4468090D1*
Y4470467D1*
X-561340Y4477652D1*
X-566093Y4482405D1*
X-573278Y4484781D1*
X-575655D1*
X-582840Y4482405D1*
X-587593Y4477651D1*
X-590024Y4468090D1*
Y4456096D1*
X-587592Y4444158D1*
X-582839Y4436973D1*
X-575653Y4434597D1*
X-570900D1*
X-563715Y4436973D1*
X-561339Y4441782D1*
X-519536Y4199309D2*
X-524345Y4201741D1*
X-531530Y4208870D1*
X-531529Y4158686D1*
X-546969Y4208925D2*
X-546968Y4158685D1*
X-580463Y4208924D2*
X-546968Y4175432D1*
X-558907Y4187425D2*
X-580461Y4158684D1*
X629205Y3634994D2*
X607705Y3634993D1*
X600520Y3637425D1*
X598088Y3639802D1*
X595711Y3644555D1*
Y3649363D1*
X598087Y3654116D1*
X600519Y3656548D1*
X607704Y3658925D1*
X629204Y3658926D1*
X629205Y3608686D1*
X612458Y3634994D2*
X595712Y3608685D1*
X580272Y3649307D2*
X575463Y3651739D1*
X568278Y3658869D1*
X568279Y3608684D1*
X538468Y3658868D2*
X545654Y3656491D1*
X550462Y3649306D1*
X552839Y3637368D1*
Y3630183D1*
X550463Y3618245D1*
X545655Y3611060D1*
X538470Y3608683D1*
X533717D1*
X526532Y3611059D1*
X521778Y3618244D1*
X519346Y3630182D1*
Y3637367D1*
X521777Y3649305D1*
X526530Y3656491D1*
X533715Y3658867D1*
X538468Y3658868D1*
X521777Y3649305D2*
X550463Y3618245D1*
X599214Y3386811D2*
X594405Y3389242D1*
X587220Y3396372D1*
X587222Y3346187D1*
X571781Y3396427D2*
X571782Y3346187D1*
X538287Y3396425D2*
X571782Y3362933D1*
X559843Y3374926D2*
X538289Y3346185D1*
X-406278Y2354921D2*
X-427778Y2354920D1*
X-434963Y2357351D1*
X-437395Y2359727D1*
X-439772Y2364480D1*
X-439773Y2369289D1*
X-437396Y2374042D1*
X-434965Y2376474D1*
X-427780Y2378851D1*
X-406280Y2378853D1*
X-406276Y2328613D1*
X-423025Y2354920D2*
X-439770Y2328610D1*
X-455212Y2369232D2*
X-460020Y2371664D1*
X-467206Y2378793D1*
X-467203Y2328609D1*
X-482644Y2369231D2*
X-487453Y2371662D1*
X-494639Y2378792D1*
X-494635Y2328607D1*
X-544083Y2374775D2*
X-548891Y2377207D1*
X-556077Y2384336D1*
X-556073Y2334151D1*
X-571516Y2384390D2*
X-571513Y2334150D1*
X-605009Y2384388D2*
X-571514Y2350897D1*
X-583453Y2362890D2*
X-605006Y2334148D1*
X-1125838Y3542159D2*
X-1147338D1*
X-1154523Y3544591D1*
X-1156955Y3546967D1*
X-1159332Y3551720D1*
Y3556529D1*
X-1156955Y3561282D1*
X-1154523Y3563714D1*
X-1147338Y3566091D1*
X-1125838D1*
Y3515851D1*
X-1142585Y3542159D2*
X-1159332Y3515851D1*
X-1174771Y3556474D2*
X-1179579Y3558905D1*
X-1186764Y3566035D1*
Y3515851D1*
X-1204636Y3554097D2*
Y3556474D1*
X-1207012Y3561282D1*
X-1209389Y3563659D1*
X-1214197Y3566035D1*
X-1223759D1*
X-1228512Y3563659D1*
X-1230889Y3561282D1*
X-1233320Y3556474D1*
Y3551720D1*
X-1230889Y3546912D1*
X-1226135Y3539782D1*
X-1202204Y3515851D1*
X-1235697D1*
X-1057045Y3362716D2*
X-1061853Y3365148D1*
X-1069038Y3372278D1*
Y3322093D1*
X-1084478Y3372333D2*
Y3322093D1*
X-1117971Y3372333D2*
X-1084478Y3338840D1*
X-1096416Y3350833D2*
X-1117971Y3322093D1*
X418156Y2154660D2*
X396656D1*
X389471Y2157091D1*
X387039Y2159468D1*
X384662Y2164221D1*
Y2169029D1*
X387038Y2173783D1*
X389470Y2176215D1*
X396655Y2178591D1*
X418155Y2178592D1*
X418157Y2128352D1*
X401409Y2154660D2*
X384663Y2128351D1*
X369223Y2168974D2*
X364414Y2171405D1*
X357229Y2178535D1*
X357231Y2128350D1*
X336981Y2178534D2*
X310728Y2178533D1*
X325044Y2159411D1*
X317859Y2159410D1*
X313106Y2157034D1*
X310729Y2154657D1*
X308297Y2147472D1*
X308298Y2142719D1*
X310730Y2135534D1*
X315483Y2130725D1*
X322668Y2128349D1*
X329853D1*
X336983Y2130726D1*
X339359Y2133158D1*
X341791Y2137911D1*
X405467Y1899312D2*
X400658Y1901744D1*
X393473Y1908873D1*
X393475Y1858689D1*
X378034Y1908928D2*
X378036Y1858688D1*
X344541Y1908927D2*
X378035Y1875435D1*
X366096Y1887428D2*
X344542Y1858687D1*
X475601Y3254664D2*
X454101Y3254663D1*
X446916Y3257095D1*
X444484Y3259471D1*
X442107Y3264224D1*
Y3269032D1*
X444483Y3273786D1*
X446915Y3276218D1*
X454100Y3278595D1*
X475600Y3278596D1*
X475603Y3228356D1*
X458855Y3254663D2*
X442109Y3228354D1*
X426668Y3268976D2*
X421859Y3271408D1*
X414674Y3278537D1*
X414677Y3228353D1*
X375306Y3228350D2*
X375303Y3278535D1*
X399237Y3245098D1*
X363367Y3245096D1*
X463780Y3009429D2*
X463779Y3011805D1*
X461403Y3016613D1*
X459026Y3018990D1*
X454217Y3021366D1*
X444656D1*
X439903Y3018989D1*
X437526Y3016612D1*
X435095Y3011804D1*
Y3007050D1*
X437527Y3002242D1*
X442281Y2995113D1*
X466214Y2971182D1*
X432720Y2971180D1*
X388593Y3021363D2*
X412470Y3021364D1*
X414848Y2999864D1*
X412471Y3002241D1*
X405286Y3004672D1*
X398156D1*
X390971Y3002240D1*
X386163Y2997486D1*
X383787Y2990301D1*
Y2985548D1*
X386164Y2978363D1*
X390973Y2973555D1*
X398158Y2971178D1*
X405287Y2971179D1*
X412472Y2973556D1*
X414849Y2975988D1*
X417280Y2980741D1*
X-1111887Y2446156D2*
X-1111888Y2410286D1*
X-1114264Y2403101D1*
X-1119073Y2398348D1*
X-1126258Y2395916D1*
X-1131011D1*
X-1138196Y2398348D1*
X-1143004Y2403101D1*
X-1145381Y2410286D1*
Y2446156D1*
X-1160820Y2436539D2*
X-1165628Y2438971D1*
X-1172813Y2446101D1*
X-1172814Y2395916D1*
X-720035Y1858415D2*
X-700856Y1908655D1*
X-681733Y1858415D1*
X-688918Y1875162D2*
X-712850D1*
X-752221Y1908655D2*
Y1858415D1*
X-735474Y1908655D2*
X-768968D1*
X-815524Y1891909D2*
X-813092Y1884724D1*
X-808339Y1879915D1*
X-801154Y1877539D1*
X-798777D1*
X-791592Y1879915D1*
X-786839Y1884724D1*
X-784407Y1891909D1*
Y1894285D1*
X-786839Y1901470D1*
X-791592Y1906224D1*
X-798777Y1908600D1*
X-801153D1*
X-808338Y1906224D1*
X-813092Y1901471D1*
X-815524Y1891909D1*
Y1879915D1*
X-813092Y1867977D1*
X-808339Y1860792D1*
X-801154Y1858415D1*
X-796401D1*
X-789215Y1860792D1*
X-786839Y1865600D1*
X-845333Y1908600D2*
X-838148Y1906224D1*
X-833339Y1899039D1*
X-830963Y1887101D1*
Y1879915D1*
X-833340Y1867977D1*
X-838148Y1860792D1*
X-845333Y1858416D1*
X-850086D1*
X-857271Y1860792D1*
X-862024Y1867977D1*
X-864456Y1879916D1*
Y1887101D1*
X-862024Y1899039D1*
X-857271Y1906224D1*
X-850086Y1908600D1*
X-845333D1*
X-862024Y1899039D2*
X-833340Y1867977D1*
X-913389Y1901471D2*
X-908636Y1906279D1*
X-901450Y1908656D1*
X-891889D1*
X-884704Y1906279D1*
X-879895Y1901471D1*
Y1896718D1*
X-882327Y1891909D1*
X-884704Y1889533D1*
X-889457Y1887156D1*
X-903827Y1882348D1*
X-908636Y1879971D1*
X-911012Y1877539D1*
X-913389Y1872786D1*
Y1865601D1*
X-908636Y1860848D1*
X-901451Y1858416D1*
X-891889D1*
X-884704Y1860848D1*
X-879896Y1865601D1*
X-952760Y1858416D2*
Y1908601D1*
X-928828Y1875163D1*
X-964698D1*
X-1004069Y1858417D2*
Y1908601D1*
X-980137Y1875163D1*
X-1016007D1*
X-1031446Y1899040D2*
X-1036255Y1901472D1*
X-1043440Y1908602D1*
Y1858417D1*
X-1082811D2*
Y1908602D1*
X-1058879Y1875164D1*
X-1094749D1*
X-1110188Y1883510D2*
X-1137823D1*
X-1191564Y1858418D2*
X-1172385Y1908657D1*
X-1153262Y1858417D1*
X-1160447Y1875164D2*
X-1184379D1*
X-1178891Y2796882D2*
X-1212379Y2746638D1*
X-1212384Y2796878D2*
X-1178886Y2746642D1*
X-1227823Y2787260D2*
X-1232631Y2789691D1*
X-1239817Y2796820D1*
X-1239812Y2746635D1*
X-1320528Y2401790D2*
X-1315720Y2399414D1*
X-1310966Y2394606D1*
X-1308534Y2389853D1*
X-1306156Y2382668D1*
X-1306155Y2370675D1*
X-1308531Y2363545D1*
X-1310962Y2358736D1*
X-1315715Y2353982D1*
X-1320523Y2351550D1*
X-1330085Y2351549D1*
X-1334838Y2353980D1*
X-1339647Y2358733D1*
X-1342024Y2363541D1*
X-1344402Y2370671D1*
X-1344403Y2382664D1*
X-1342027Y2389849D1*
X-1339651Y2394603D1*
X-1334843Y2399412D1*
X-1330090Y2401789D1*
X-1320528Y2401790D1*
X-1393337Y2394597D2*
X-1388584Y2399406D1*
X-1381399Y2401783D1*
X-1371838Y2401784D1*
X-1364652Y2399409D1*
X-1359843Y2394601D1*
Y2389848D1*
X-1362274Y2385039D1*
X-1364650Y2382662D1*
X-1369403Y2380285D1*
X-1383773Y2375475D1*
X-1388581Y2373098D1*
X-1390958Y2370666D1*
X-1393334Y2365912D1*
X-1393333Y2358727D1*
X-1388579Y2353975D1*
X-1381394Y2351543D1*
X-1371832Y2351544D1*
X-1364647Y2353977D1*
X-1359840Y2358731D1*
X-1444645Y2389839D2*
X-1442269Y2394592D1*
X-1437461Y2399401D1*
X-1432708Y2401778D1*
X-1423147Y2401779D1*
X-1418338Y2399403D1*
X-1413584Y2394595D1*
X-1411152Y2389842D1*
X-1408775Y2382657D1*
X-1408773Y2370664D1*
X-1411149Y2363534D1*
X-1413581Y2358725D1*
X-1418333Y2353971D1*
X-1423141Y2351539D1*
X-1432703Y2351538D1*
X-1437456Y2353969D1*
X-1442265Y2358722D1*
X-1444643Y2363530D1*
X-1474456Y2401774D2*
X-1469647Y2399398D1*
X-1464894Y2394590D1*
X-1462461Y2389837D1*
X-1460084Y2382652D1*
X-1460083Y2370658D1*
X-1462458Y2363528D1*
X-1464890Y2358720D1*
X-1469642Y2353966D1*
X-1474451Y2351534D1*
X-1484012Y2351533D1*
X-1488766Y2353964D1*
X-1493575Y2358717D1*
X-1495952Y2363525D1*
X-1498329Y2370654D1*
X-1498330Y2382648D1*
X-1495954Y2389833D1*
X-1493578Y2394587D1*
X-1488770Y2399396D1*
X-1484018Y2401773D1*
X-1474456Y2401774D1*
X-1544833Y2401766D2*
X-1513772Y2401769D1*
X-1513766Y2351529D1*
X-1544828Y2351526D1*
X-1513769Y2377838D2*
X-1532892Y2377836D1*
X-1560272Y2401765D2*
X-1560267Y2351525D1*
X-1581822Y2351522D1*
X-1589007Y2353953D1*
X-1591384Y2356330D1*
X-1593761Y2361083D1*
X-1593762Y2368268D1*
X-1591386Y2373076D1*
X-1589010Y2375453D1*
X-1581825Y2377831D1*
X-1589010Y2380262D1*
X-1591387Y2382638D1*
X-1593764Y2387391D1*
X-1593765Y2392199D1*
X-1591389Y2396953D1*
X-1589012Y2399385D1*
X-1581827Y2401762D1*
X-1560272Y2401765D1*
X-1560270Y2377833D2*
X-1581825Y2377831D1*
M02*
