M48
INCH
T01C0.0191
T02C0.028
T03C0.032
T04C0.035
T05C0.0354
T06C0.042
T07C0.065
T08C0.125
%
T01
X-002862Y+025388
X-003687Y+027125
X-003250Y+027500
X+000250Y+024750
X-000500Y+023562
X+002500Y+022312
X+006312Y+024875
X+006250Y+026875
X+004500Y+027750
X+006750Y+031000
X+005625Y+037062
X+002438Y+036438
X-000250Y+038500
X-012688Y+033437
X-009868Y+026868
X-008500Y+023250
X-005688Y+020815
X-005663Y+020163
X-007000Y+019750
X-003562Y+020500
X-012312Y+020938
T02
X-014750Y+030000
X-012750Y+030000
X-010500Y+034500
X-004500Y+034500
X-006500Y+029813
X-006500Y+027813
X-002000Y+025500
X+004000Y+025500
X+006750Y+034250
X+012750Y+034250
X+004000Y+043250
X-002000Y+043250
T03
X-014750Y+032063
X-011750Y+032063
T04
X+011059Y+044000
X+009780Y+044728
X+008500Y+044000
X+008500Y+042228
X+011059Y+042228
X+009780Y+028478
X+011059Y+027750
X+011059Y+025978
X+008500Y+025978
X+008500Y+027750
X-013000Y+027750
X-013000Y+024750
X-016000Y+024750
X-016000Y+027750
T05
X-014399Y+039451
X-014399Y+041184
T06
X-008500Y+027750
X-009500Y+027750
X-009500Y+028750
X-009500Y+029750
X-008500Y+029750
X-008500Y+028750
X-008500Y+031900
X-006500Y+031900
X-006500Y+037100
X-008500Y+037100
X-008812Y+041000
X+000000Y+040650
X+002000Y+040650
X+002000Y+045850
X-000000Y+045850
X-000500Y+034500
X+002500Y+034500
X+002000Y+028100
X-000000Y+028100
X+000000Y+022900
X+002000Y+022900
X+006313Y+022688
X+010250Y+022625
X+010750Y+031650
X+008750Y+031650
X+008750Y+036850
X+010750Y+036850
T07
X+002750Y+043250
X-000750Y+043250
X-005750Y+034500
X-009250Y+034500
X-000750Y+025500
X+002750Y+025500
X+008000Y+034250
X+011500Y+034250
T00
M30
